<svg width="21" height="21" viewBox="0 0 21 21" fill="none" xmlns="http://www.w3.org/2000/svg">
<path d="M7.21875 12.4688L4.2 2.95312C4.06875 2.3625 3.47813 1.96875 2.8875 1.96875H1.3125" stroke="#F8711D" stroke-width="2" stroke-miterlimit="10" stroke-linejoin="round"/>
<path d="M17.0625 15.0938H5.51251C4.79064 15.0938 4.20001 14.5031 4.20001 13.7812C4.20001 13.0594 4.79064 12.6 5.51251 12.4688L19.0313 10.5V3.9375H7.21876" stroke="#F8711D" stroke-width="2" stroke-miterlimit="10" stroke-linejoin="round"/>
<path d="M7.21875 19.0312C7.58119 19.0312 7.875 18.7374 7.875 18.375C7.875 18.0126 7.58119 17.7188 7.21875 17.7188C6.85631 17.7188 6.5625 18.0126 6.5625 18.375C6.5625 18.7374 6.85631 19.0312 7.21875 19.0312Z" stroke="#F8711D" stroke-width="2" stroke-miterlimit="10" stroke-linejoin="round"/>
<path d="M15.75 19.0312C16.1124 19.0312 16.4062 18.7374 16.4062 18.375C16.4062 18.0126 16.1124 17.7188 15.75 17.7188C15.3876 17.7188 15.0938 18.0126 15.0938 18.375C15.0938 18.7374 15.3876 19.0312 15.75 19.0312Z" stroke="#F8711D" stroke-width="2" stroke-miterlimit="10" stroke-linejoin="round"/>
</svg>
